<?xml version="1.0" encoding="UTF-8" standalone="no"?>
<!-- Created with Inkscape (http://www.inkscape.org/) -->

<svg
   width="198.4375mm"
   height="190.10312mm"
   viewBox="0 0 198.4375 190.10312"
   version="1.1"
   id="svg1"
   xml:space="preserve"
   inkscape:version="1.3.2 (091e20e, 2023-11-25, custom)"
   sodipodi:docname="drawing.svg"
   xmlns:inkscape="http://www.inkscape.org/namespaces/inkscape"
   xmlns:sodipodi="http://sodipodi.sourceforge.net/DTD/sodipodi-0.dtd"
   xmlns="http://www.w3.org/2000/svg"
   xmlns:svg="http://www.w3.org/2000/svg"
   xmlns:rdf="http://www.w3.org/1999/02/22-rdf-syntax-ns#"
   xmlns:cc="http://creativecommons.org/ns#"
   xmlns:dc="http://purl.org/dc/elements/1.1/"><title
     id="title36">Task Dragon</title><sodipodi:namedview
     id="namedview1"
     pagecolor="#ffffff"
     bordercolor="#000000"
     borderopacity="0.25"
     inkscape:showpageshadow="2"
     inkscape:pageopacity="0.0"
     inkscape:pagecheckerboard="true"
     inkscape:deskcolor="#d1d1d1"
     inkscape:document-units="mm"
     inkscape:zoom="1.0128998"
     inkscape:cx="374.66687"
     inkscape:cy="358.87064"
     inkscape:window-width="2560"
     inkscape:window-height="1351"
     inkscape:window-x="-9"
     inkscape:window-y="-9"
     inkscape:window-maximized="1"
     inkscape:current-layer="layer1" /><defs
     id="defs1" /><g
     inkscape:label="Layer 1"
     inkscape:groupmode="layer"
     id="layer1"
     transform="translate(-5.7891676,-32.551341)"><g
       id="g2"
       transform="matrix(1.6536458,0,0,1.6536458,-0.82541563,21.76957)"><path
         fill="#d68b52"
         d="M 22.13,18.65 H 45.32 V 33.73 H 22.13 Z"
         id="path1" /><ellipse
         cx="114.59"
         cy="108.83"
         rx="9.4099998"
         ry="12.65"
         fill="#f2bd72"
         id="ellipse1" /><path
         d="m 114.59,96.18 h -5.18 c 0,0 0.04,-63.41 0.04,-74.11 0,-10.7 -7.61,-15.55 -10.42,-15.55 h -76.9 c 0,0 10.1,1.21 10.23,15.55 0.09,10.21 0,62.8 0,79.61 0,16.81 6.37,19.79 6.37,19.79 h 75.38 c 0.07,0 0.14,-0.01 0.21,-0.02 0.09,0 0.18,0.02 0.27,0.02 5.2,0 9.41,-5.66 9.41,-12.65 0,-6.97 -4.21,-12.64 -9.41,-12.64 z"
         fill="#ffd8a1"
         id="path2" /><path
         d="m 114.59,96.18 h -5.18 c 0,0 0.04,-63.41 0.04,-74.11 0,-10.7 -7.61,-15.55 -10.42,-15.55 h -76.9 c 0,0 10.1,1.21 10.23,15.55 0.09,10.21 0,62.8 0,79.61 0,16.81 6.37,19.79 6.37,19.79 h 75.38 c 0.07,0 0.14,-0.01 0.21,-0.02 0.09,0 0.18,0.02 0.27,0.02 5.2,0 9.41,-5.66 9.41,-12.65 0,-6.97 -4.21,-12.64 -9.41,-12.64 z"
         fill="#ffd8a1"
         id="path3" /><path
         d="m 32.26,100.75 0.09,-9.1 c 0,0 59.53,6.46 77.04,-14.12 v 22.99 z"
         fill="#f2bd72"
         id="path4" /><g
         opacity="0.6"
         fill="none"
         stroke="#9e673c"
         stroke-width="3.005"
         stroke-linecap="round"
         stroke-miterlimit="10"
         id="g15"><path
           d="m 45.52,30.1 c 1.17,0 2.35,-0.02 3.52,0 0.89,0.02 1.72,0.14 2.63,0.05 0.98,-0.1 1.96,-0.29 2.96,-0.26 1.22,0.04 2.39,0.41 3.62,0.41 0.6,0 1.14,-0.17 1.73,-0.2 0.68,-0.03 1.36,0 2.04,0 h 4.3"
           opacity="0.77"
           id="path5" /><path
           d="m 79.01,30.1 c 0.73,0 1.49,0.06 2.21,-0.05 1.12,-0.17 2.19,-0.63 3.36,-0.53 1.25,0.11 2.31,0.84 3.54,1.03 1.99,0.29 3.86,-0.9 5.87,-1.09 0.64,-0.06 1.28,-0.02 1.92,0.03 1.45,0.12 2.88,0.3 4.31,0.53"
           opacity="0.77"
           id="path6" /><path
           d="m 45.52,53.51 c 1,0 2.04,0.1 3.03,0 1.39,-0.14 2.73,-0.63 4.16,-0.56 1.44,0.07 2.76,0.7 4.17,0.95 1.94,0.33 3.89,-0.08 5.81,-0.33 2.05,-0.27 4,-0.05 6.06,-0.05 h 7.7"
           opacity="0.77"
           id="path7" /><path
           d="m 86.77,53.51 c 0.74,0 1.48,-0.01 2.22,0 1.25,0.02 2.18,-0.38 3.37,-0.61 1.69,-0.33 3.38,0.19 5.05,0.36 1.23,0.12 2.52,0.26 3.75,0.25"
           opacity="0.77"
           id="path8" /><path
           d="m 68.56,76.96 c 1.34,0 2.74,-0.09 4.05,0.09 2.27,0.32 4.18,-0.39 6.41,-0.62 2.09,-0.22 4.18,0.2 6.28,0.37 2.18,0.18 4.37,0.1 6.56,0.02 2.27,-0.08 4.54,0.13 6.83,0.13"
           opacity="0.77"
           id="path9" /><path
           d="m 44.58,76.96 c 1.96,0 3.89,0.37 5.85,0.23 0.66,-0.05 1.32,-0.14 1.99,-0.17 1.33,-0.07 2.67,0.23 3.98,0.08 0.87,-0.1 1.7,-0.14 2.58,-0.14"
           opacity="0.77"
           id="path10" /><path
           d="m 68.56,18.48 c 1.34,0 2.74,-0.09 4.05,0.09 2.27,0.32 4.18,-0.39 6.41,-0.62 2.09,-0.22 4.18,0.2 6.28,0.37 2.18,0.18 4.37,0.1 6.56,0.02 2.27,-0.08 4.54,0.13 6.83,0.13"
           opacity="0.77"
           id="path11" /><path
           d="m 44.58,18.48 c 1.96,0 3.89,0.37 5.85,0.23 0.66,-0.05 1.32,-0.14 1.99,-0.17 1.33,-0.07 2.67,0.23 3.98,0.08 0.87,-0.1 1.7,-0.14 2.58,-0.14"
           opacity="0.77"
           id="path12" /><path
           d="m 45.52,41.87 c 0.96,0 1.89,0.04 2.83,0.11 1.68,0.12 3.24,-0.64 4.87,-0.81 2.05,-0.21 4.07,0.45 6.1,0.75 2.01,0.3 4.05,0.12 6.07,0 0.92,-0.06 1.88,-0.14 2.8,-0.12 0.99,0.02 1.93,0.33 2.92,0.32 1.27,-0.01 2.44,-0.57 3.69,-0.76 2.78,-0.43 5.55,0.97 8.36,0.78 0.92,-0.06 1.81,-0.29 2.72,-0.38 1.12,-0.11 2.25,-0.01 3.37,0.09 l 4.98,0.45"
           opacity="0.77"
           id="path13" /><path
           d="m 45.52,65.26 c 0.96,0 1.89,0.04 2.83,0.11 1.68,0.12 3.24,-0.64 4.87,-0.81 2.05,-0.21 4.07,0.45 6.1,0.75 2.01,0.3 4.05,0.12 6.07,0 0.92,-0.06 1.88,-0.14 2.8,-0.12 0.99,0.02 1.93,0.33 2.92,0.32 1.27,-0.01 2.44,-0.57 3.69,-0.76 2.78,-0.43 5.55,0.97 8.36,0.78 0.92,-0.06 1.81,-0.29 2.72,-0.38 1.12,-0.11 2.25,-0.01 3.37,0.09 l 4.98,0.45"
           opacity="0.77"
           id="path14" /><path
           d="m 58.39,88.62 c 0.52,0.01 0.99,-0.11 1.5,-0.13 0.74,-0.04 1.47,0.17 2.2,0.28 1.75,0.26 3.58,0.39 5.32,0.01 0.98,-0.22 1.91,-0.59 2.91,-0.73 2.51,-0.36 4.99,0.76 7.54,0.75 2.2,-0.02 4.56,-1.02 6.73,-0.44 1.42,0.37 2.88,0.28 4.38,0.28"
           opacity="0.77"
           id="path15" /></g><path
         d="m 38.25,96.18 v 6.17 h 84.41 c -1.64,-3.69 -4.64,-6.17 -8.07,-6.17 z"
         fill="#fcebcd"
         id="path16" /><ellipse
         cx="38.73"
         cy="108.83"
         rx="9.4099998"
         ry="12.65"
         fill="#f2bd72"
         id="ellipse16" /><path
         d="m 45.71,108.17 c 0,5.33 -3.34,8.35 -6.92,9.33 -4.61,1.26 -6.53,0.16 -6.53,0.16 V 98.68 c 0,0 3.25,-0.82 6.72,0.16 3.54,0.99 6.73,4 6.73,9.33 z"
         fill="#784d30"
         id="path17" /><ellipse
         cx="33.48"
         cy="108.17"
         rx="6.7199998"
         ry="9.6499996"
         fill="#784d30"
         id="ellipse17" /><ellipse
         cx="33.48"
         cy="108.18"
         rx="6.7199998"
         ry="9.6499996"
         fill="#784d30"
         id="ellipse18" /><ellipse
         cx="24.860001"
         cy="108.18"
         rx="4.46"
         ry="4.5"
         fill="#ba793e"
         id="ellipse19" /><path
         d="m 33.02,105.44 c 1.27,0.39 2.82,3.08 0.18,5.66 -0.67,0.65 0.02,2.09 0.48,3.3 0.58,1.54 1,2.37 2.34,1.45 1.8,-1.22 3.51,-4.71 3.51,-7.67 0,-4.79 -2.71,-8.68 -6.05,-8.68 -1.72,0 -3.06,0.55 -4.19,2.88 -0.5,1.04 -0.55,2.37 1.04,2.53 0,0.01 1.78,0.26 2.69,0.53 z"
         fill="#ba793e"
         id="path19" /><ellipse
         cx="22.34"
         cy="20.09"
         rx="10.09"
         ry="13.57"
         fill="#f2bd72"
         id="ellipse20" /><g
         id="g23"><path
           d="m 29.32,19.43 c 0,5.33 -3.34,8.35 -6.92,9.33 -4.61,1.26 -6.53,0.16 -6.53,0.16 V 9.94 c 0,0 3.25,-0.82 6.72,0.16 3.53,0.98 6.73,4 6.73,9.33 z"
           fill="#784d30"
           id="path20" /><ellipse
           cx="17.09"
           cy="19.43"
           rx="6.7199998"
           ry="9.6499996"
           fill="#784d30"
           id="ellipse21" /><ellipse
           cx="17.09"
           cy="19.440001"
           rx="6.7199998"
           ry="9.6499996"
           fill="#784d30"
           id="ellipse22" /><ellipse
           cx="8.46"
           cy="19.440001"
           rx="4.46"
           ry="4.5"
           fill="#ba793e"
           id="ellipse23" /><path
           d="m 16.62,16.7 c 1.27,0.39 2.82,3.08 0.18,5.66 -0.67,0.65 0.02,2.09 0.48,3.3 0.58,1.54 1,2.37 2.34,1.45 1.8,-1.22 3.51,-4.71 3.51,-7.67 0,-4.79 -2.71,-8.68 -6.05,-8.68 -1.72,0 -3.06,0.55 -4.19,2.88 -0.5,1.04 -0.55,2.37 1.04,2.53 0,0.01 1.79,0.25 2.69,0.53 z"
           fill="#ba793e"
           id="path23" /></g></g><g
       id="g3"
       transform="matrix(2.9398148,0,0,2.9398148,-2.2952408,25.077675)"
       style="fill:#aa0000"><g
         id="color"
         style="fill:#aa0000"><path
           fill="#b1cc33"
           stroke="#b1cc33"
           stroke-linecap="round"
           stroke-linejoin="round"
           stroke-miterlimit="10"
           stroke-width="2"
           d="M 46,24 C 44.9167,23.4167 42,23 40.0833,23.0833 38.1667,23.1667 37,21 37,21 c -0.9,1.35 -0.315,2.7675 0.6007,3.9184 1.1508,1.4463 2.8225,2.3985 4.6286,2.7916 C 47.7267,28.9066 48,30 48,30 l -0.1945,2.8581 c 3.8914,1.5502 4.6086,4.4578 4.8891,5.4505 l -4.3577,0.0076 c 3.4697,2.4416 4.3264,7.3677 4.3264,7.3677 L 50,46 c -0.1667,3 -3.5,7.9167 -8,11 -4.5,3.0833 -2.25,7.75 -2.25,7.75 C 39.75,64.75 34,58 42,51 50,44 42.5833,36 42.5833,36 44.1666,48 38.1666,50.5833 38.1666,50.5833 30.3333,52.1667 29.75,47.25 29.75,47.25 l 3.75,1.4167 C 42,49.3334 33.6667,37.5834 33.6667,37.5834 24.3333,32.1667 20,40 19.5833,38.5833 c -0.4167,-1.4167 1.5833,-4.75 1.5833,-4.75 C 19.3333,32.6666 10.3333,36.9166 10.3333,36.9166 9.6667,35.8333 17.5833,31 17.5833,31 16.1667,29 10,29 10,29 c 0,0 4,-6 14.1667,-2.8333 L 37,34 c 0,0 -6.7368,-6.8764 -8,-12 -1.2801,-5.1922 2.6184,-8.4931 2,-8 L 27.6694,9.6681 c 1.9432,-0.5218 3.5669,0.7807 4.1322,1.2131 l -1.578,-5.122 c 2.5024,0.1211 3.7895,2.1179 4.2473,2.7901 L 36,5 39.9167,8.5 c 0,0 2.0833,-1.5 3,0.25 0.9166,1.75 3.0833,5.25 6.1666,5.8333 3.0833,0.5833 1.5,3.9167 1.5,3.9167 C 50.5833,18.5 46,17 44,17 42,17 41.25,18.5833 41.25,18.5833 41.25,18.5833 41,18 45,20 c 4,2 1,4 1,4"
           id="path1-6"
           style="fill:#aa0000" /><path
           fill="#ea5a47"
           stroke="none"
           d="m 50,21 c 0,0 4,2 3,4 0,0 3.3333,0 4.1667,2.5 C 58,30 63,28 63,28 l -4.3333,-2.1667 c 0,0 0,-2.8333 -1.3333,-2.8333 C 56,23 53,20 50,21 Z"
           id="path2-4"
           style="fill:#aa0000" /></g><g
         id="hair"
         style="fill:#aa0000" /><g
         id="skin"
         style="fill:#aa0000" /><g
         id="skin-shadow"
         style="fill:#aa0000" /><g
         id="line"
         style="fill:#aa0000"><path
           fill="none"
           stroke="#000000"
           stroke-linecap="round"
           stroke-linejoin="round"
           stroke-miterlimit="10"
           stroke-width="2"
           d="m 52.6632,45.6838 c 0,0 -0.8567,-4.9261 -4.3264,-7.3677"
           id="path3-2"
           style="fill:#aa0000" /><path
           fill="none"
           stroke="#000000"
           stroke-linecap="round"
           stroke-linejoin="round"
           stroke-miterlimit="10"
           stroke-width="2"
           d="M 52.6945,38.3086 C 52.414,37.3159 51.6968,34.4083 47.8054,32.8581"
           id="path4-2"
           style="fill:#aa0000" /><path
           fill="none"
           stroke="#000000"
           stroke-linecap="round"
           stroke-linejoin="round"
           stroke-miterlimit="10"
           stroke-width="2"
           d="m 48,30 c 0,0 -0.2733,-1.0934 -5.7707,-2.29 -1.806,-0.3931 -3.4777,-1.3453 -4.6286,-2.7916 C 36.685,23.7675 36.1,22.35 37,21 c 0,0 1.1667,2.1667 3.0833,2.0833 C 42,23 44.9167,23.4167 46,24"
           id="path5-0"
           style="fill:#aa0000" /><path
           fill="none"
           stroke="#000000"
           stroke-linecap="round"
           stroke-linejoin="round"
           stroke-miterlimit="10"
           stroke-width="2"
           d="m 46,24 c 0,0 3,-2 -1,-4 -4,-2 -3.75,-1.4167 -3.75,-1.4167 0,0 0.75,-1.5833 2.75,-1.5833 2,0 6.5833,1.5 6.5833,1.5 0,0 1.5833,-3.3333 -1.5,-3.9167 C 46,14 43.8333,10.5 42.9167,8.75 42,7 39.9167,8.5 39.9167,8.5 L 36,5"
           id="path6-5"
           style="fill:#aa0000" /><path
           fill="none"
           stroke="#000000"
           stroke-linecap="round"
           stroke-linejoin="round"
           stroke-miterlimit="10"
           stroke-width="2"
           d="M 24.1667,26.1667 C 14,23 10,29 10,29 c 0,0 6.1667,0 7.5833,2 0,0 -7.9167,4.8333 -7.25,5.9167 0,0 9,-4.25 10.8333,-3.0833 0,0 -2,3.3333 -1.5833,4.75 0.4167,1.4167 4.75,-6.4167 14.0833,-1 0,0 8.3333,11.75 -0.1667,11.0833 L 29.75,47.25 c 0,0 0.5833,4.9167 8.4167,3.3333 0,0 6,-2.5833 4.4167,-14.5833 0,0 7.4167,8 -0.5833,15 -8,7 -2.25,13.75 -2.25,13.75 0,0 -2.2501,-4.6667 2.2499,-7.75 4.5,-3.0833 7.8333,-8 8,-11"
           id="path7-5"
           style="fill:#aa0000" /><path
           fill="none"
           stroke="#000000"
           stroke-linecap="round"
           stroke-linejoin="round"
           stroke-miterlimit="10"
           stroke-width="2"
           d="m 31,14 c 0.6184,-0.4931 -3.2801,2.8078 -2,8 1.2632,5.1236 8,12 8,12"
           id="path8-1"
           style="fill:#aa0000" /><path
           fill="none"
           stroke="#000000"
           stroke-linecap="round"
           stroke-linejoin="round"
           stroke-miterlimit="10"
           stroke-width="2"
           d="M 34.4709,8.5493 C 34.013,7.8771 32.726,5.8803 30.2236,5.7592"
           id="path9-0"
           style="fill:#aa0000" /><path
           fill="none"
           stroke="#000000"
           stroke-linecap="round"
           stroke-linejoin="round"
           stroke-miterlimit="10"
           stroke-width="2"
           d="M 31.8016,10.8812 C 31.2363,10.4488 29.6126,9.1464 27.6694,9.6681"
           id="path10-0"
           style="fill:#aa0000" /><path
           fill="none"
           stroke="#000000"
           stroke-linecap="round"
           stroke-linejoin="round"
           stroke-miterlimit="10"
           stroke-width="2"
           d="m 50,21 c 0,0 4,2 3,4 0,0 3.3333,0 4.1667,2.5 C 58,30 63,28 63,28 l -4.3333,-2.1667 c 0,0 0,-2.8333 -1.3333,-2.8333 C 56,23 53,20 50,21 Z"
           id="path11-4"
           style="fill:#aa0000" /></g></g><path
       style="fill:#aa0000;stroke-width:0.987264"
       d="m 365.19838,462.24278 c -18.28323,-11.24807 -29.93471,-19.49763 -58.85107,-41.66812 l -36.05451,-27.64341 0.48926,-5.92358 c 0.2691,-3.25798 0.61053,-6.06796 0.75874,-6.24441 0.14822,-0.17645 17.62864,10.2585 38.84538,23.18878 36.84144,22.45255 38.77289,23.77647 42.95707,29.44512 4.74019,6.42193 19.98631,24.6441 30.06384,35.93234 3.44965,3.86408 5.89313,7.00589 5.42996,6.9818 -0.46317,-0.0241 -11.10057,-6.35493 -23.63867,-14.06852 z"
       id="path18"
       transform="scale(0.26458333)" /><path
       style="fill:#aa0000;stroke-width:0.987264"
       d="m 548.4254,522.81722 c -4.07246,-4.1457 -8.95942,-8.72221 -10.8599,-10.17002 l -3.45543,-2.63239 13.44076,-0.0464 13.44076,-0.0464 1.52852,4.19587 c 0.84068,2.30774 2.06643,5.97295 2.72389,8.14494 0.65745,2.17198 2.10663,4.94866 3.22039,6.1704 l 2.02502,2.22134 -7.32976,-0.1499 -7.32976,-0.1499 z"
       id="path21"
       transform="scale(0.26458333)" /><path
       style="fill:#aa0000;stroke-width:0.987264"
       d="m 558.06303,608.73048 c 0.49157,-6.87036 0.46625,-6.95902 -2.96922,-10.39448 l -3.46501,-3.46502 3.2053,-0.60132 c 6.69637,-1.25624 7.62989,-0.57268 9.5246,6.97439 1.28787,5.12991 2.49995,7.59665 4.70338,9.57203 l 2.9684,2.66118 -4.64487,0.61095 c -2.55468,0.33602 -5.80891,0.82712 -7.23163,1.09134 l -2.58675,0.4804 z"
       id="path22"
       transform="scale(0.26458333)" /><path
       style="fill:#aa0000;stroke-width:0.987264"
       d="m 512.63076,446.89887 c 0.17779,-3.61841 0.55989,-8.0769 0.84911,-9.90777 l 0.52586,-3.32885 2.95933,2.83522 c 4.04186,3.87234 11.22634,4.04551 15.2288,0.36705 l 2.68556,-2.46816 -0.61175,8.28974 c -0.33647,4.55936 -0.80149,8.47947 -1.03338,8.71136 -0.23189,0.23189 -1.77365,-0.27754 -3.42614,-1.13207 -4.63374,-2.3962 -11.2819,-2.02032 -14.66854,0.82936 l -2.8321,2.38305 z"
       id="path24"
       transform="scale(0.26458333)" /><path
       style="fill:#aa0000;stroke-width:0.987264"
       d="m 308.23174,231.86719 -13.48668,-17.6308 5.65346,-0.79606 c 6.87541,-0.96813 16.61645,-0.35213 19.9688,1.26277 2.04116,0.98327 17.49692,19.98446 18.59348,22.85868 0.18099,0.47442 -1.16403,0.86259 -2.98894,0.86259 -4.54104,0 -7.63796,2.26929 -13.20128,9.67334 -0.83368,1.10953 -3.85253,-2.26058 -14.53884,-16.23052 z"
       id="path25"
       transform="scale(0.26458333)" /><path
       style="fill:#aa0000;stroke-width:0.987264"
       d="m 344.55529,201.34781 c -4.34396,-2.92406 -10.03467,-6.09345 -12.64602,-7.04307 -2.61135,-0.94963 -5.08476,-2.18472 -5.49646,-2.74465 -1.14506,-1.55734 -7.21959,-22.3865 -6.68469,-22.9214 0.25855,-0.25854 1.36747,0.0102 2.46426,0.59718 1.0968,0.58698 3.3094,1.06725 4.91689,1.06725 1.60749,0 5.83609,0.89985 9.3969,1.99968 l 6.4742,1.99967 3.5541,11.57521 c 1.95475,6.36637 4.19596,13.53869 4.98046,15.93851 0.78449,2.39981 1.31658,4.47238 1.18242,4.6057 -0.13417,0.13332 -3.79809,-2.15002 -8.14206,-5.07408 z"
       id="path26"
       transform="scale(0.26458333)" /><path
       style="fill:#ffcc00;stroke-width:0.987264"
       d="m 385.20395,186.34617 c -0.3133,-1.49324 -3.03561,-5.82486 -6.04958,-9.62583 -3.01397,-3.80097 -5.75149,-7.47413 -6.08339,-8.16257 -0.33189,-0.68844 0.93616,-4.82695 2.81789,-9.19669 l 3.42133,-7.94498 1.26733,3.05961 c 0.69703,1.68278 4.1685,5.65288 7.71437,8.82244 l 6.44703,5.76284 -4.27,10.00008 c -2.34851,5.50004 -4.36571,10.00007 -4.48268,10.00007 -0.11696,0 -0.469,-1.22174 -0.7823,-2.71497 z"
       id="path27"
       transform="scale(0.26458333)" /><path
       style="fill:#ffcc00;stroke-width:0.987264"
       d="m 345.12581,201.19263 c -2.9442,-1.93662 -8.36656,-5.01042 -12.0497,-6.83068 l -6.69662,-3.30956 -2.07943,-7.16602 c -1.14369,-3.94132 -2.54071,-8.63967 -3.10449,-10.44079 -0.56377,-1.80112 -0.85548,-3.44433 -0.64822,-3.65158 0.47142,-0.47143 16.20509,2.95914 19.62621,4.2793 2.57766,0.99467 2.75881,1.45719 10.41371,26.5882 0.70294,2.30773 0.96611,4.16356 0.58484,4.12406 -0.38128,-0.0395 -3.10211,-1.65631 -6.0463,-3.59293 z"
       id="path28"
       transform="scale(0.26458333)" /><path
       style="fill:#ffcc00;stroke-width:0.987264"
       d="m 317.14613,242.12661 c -2.39861,-2.85073 -8.05358,-10.00232 -12.56659,-15.89242 -6.42283,-8.38269 -7.90489,-10.89958 -6.82194,-11.58524 2.09772,-1.32814 18.78754,-1.06305 21.55945,0.34244 1.32283,0.67074 6.14273,5.83093 10.71088,11.4671 8.59227,10.60111 8.94966,11.91472 3.25141,11.95076 -1.53219,0.01 -3.9191,1.61036 -6.64743,4.45781 -2.34126,2.44348 -4.4521,4.44269 -4.69075,4.44269 -0.23865,0 -2.39641,-2.33242 -4.79503,-5.18314 z"
       id="path29"
       transform="scale(0.26458333)" /><path
       style="fill:#ffcc00;stroke-width:0.987264"
       d="m 512.88388,406.2839 c -6.22551,-3.18031 -21.29529,-7.89737 -41.12696,-12.87333 -21.7404,-5.45488 -30.69821,-9.17125 -41.17478,-17.08239 -5.79109,-4.373 -18.12045,-18.06542 -17.1452,-19.04067 0.17743,-0.17743 3.18881,0.84086 6.69195,2.26286 5.70865,2.31727 8.26396,2.66756 24.63375,3.37688 19.8243,0.859 38.05944,3.53882 47.09698,6.92133 3.14692,1.1778 7.52073,2.33712 9.71958,2.57627 l 3.99792,0.43482 5.72285,17.26306 c 3.14756,9.49469 5.56906,17.41231 5.38109,17.59472 -0.18796,0.18241 -1.89669,-0.46268 -3.79718,-1.43355 z"
       id="path30"
       transform="scale(0.26458333)" /><path
       style="fill:#ffcc00;stroke-width:0.987264"
       d="m 368.69135,463.70971 c -24.21144,-15.0872 -30.27562,-19.46043 -88.56255,-63.86761 -8.80673,-6.7096 -9.06965,-7.02585 -9.0284,-10.8599 0.0902,-8.38765 -1.06808,-8.77352 29.95857,9.98017 45.27882,27.36823 46.12192,27.97391 56.31591,40.45686 4.83884,5.92535 12.84293,15.43819 17.78688,21.13964 9.54774,11.01064 10.95592,12.86875 9.68283,12.77667 -0.43929,-0.0318 -7.70825,-4.3634 -16.15324,-9.62583 z"
       id="path31"
       transform="scale(0.26458333)" /><path
       style="fill:#ffcc00;stroke-width:0.987264"
       d="m 512.88388,449.3755 c 0,-1.29178 0.27993,-5.02687 0.62206,-8.30019 l 0.62206,-5.95151 3.46477,2.35126 c 4.24615,2.88151 9.45171,3.0402 13.75035,0.41916 l 3.15663,-1.92472 -0.50499,5.13702 c -0.85885,8.73672 -1.24702,9.85051 -3.13464,8.99434 -3.53399,-1.60292 -11.77195,-1.58503 -14.89965,0.0324 -3.02762,1.56564 -3.07659,1.55358 -3.07659,-0.75773 z"
       id="path32"
       transform="scale(0.26458333)" /><path
       style="fill:#ffcc00;stroke-width:0.987264"
       d="m 546.45088,520.39875 -9.37902,-9.24279 11.2894,-0.63172 c 6.20916,-0.34745 11.59685,-0.29186 11.97263,0.12351 0.37578,0.41538 1.46516,3.19872 2.42083,6.18519 0.95568,2.98648 2.57426,7.09597 3.59685,9.1322 l 1.85925,3.70224 -6.19046,-0.0129 -6.19047,-0.0129 z"
       id="path33"
       transform="scale(0.26458333)" /><path
       style="fill:#ffcc00;stroke-width:0.987264"
       d="m 558.29805,608.01549 c 0,-6.12971 -0.28755,-7.13985 -2.82247,-9.91523 l -2.82247,-3.09021 3.06928,-0.46704 c 4.52589,-0.68867 6.28539,0.72277 7.9692,6.39278 1.61245,5.4297 3.85487,9.4311 6.37945,11.38359 1.36728,1.05744 1.30346,1.20647 -0.52847,1.23408 -1.14596,0.0173 -4.14477,0.31392 -6.66404,0.65922 l -4.58048,0.62783 z"
       id="path34"
       transform="scale(0.26458333)" /><path
       style="fill:#ffcc00;stroke-width:0.987264"
       d="m 641.88663,401.13543 c -1.94965,-0.71025 -3.37791,-2.37404 -4.71431,-5.49175 -1.0545,-2.46003 -1.79503,-4.53283 -1.64564,-4.60621 0.1494,-0.0734 5.15859,2.41537 11.13154,5.53056 l 10.85991,5.66397 -6.41722,-0.0388 c -3.52947,-0.0213 -7.6759,-0.49734 -9.21428,-1.05776 z"
       id="path35"
       transform="scale(0.26458333)" /><path
       style="fill:#ffcc00;stroke-width:0.987264"
       d="m 624.77462,377.69702 c -6.63239,-6.30455 -15.05293,-10.9401 -24.91837,-13.71771 -6.23831,-1.75639 -6.3393,-1.84029 -7.44189,-6.18276 -0.61477,-2.42121 -2.2914,-6.50206 -3.72584,-9.06855 -1.43444,-2.56648 -2.42418,-4.66634 -2.19942,-4.66634 0.22476,0 7.19577,3.53751 15.49115,7.86113 8.29538,4.32361 17.47024,8.41227 20.38857,9.0859 4.6585,1.07532 5.48141,1.64445 6.74283,4.66345 1.29972,3.11067 3.07633,17.92844 2.13965,17.84572 -0.21412,-0.0189 -3.12863,-2.63829 -6.47668,-5.82084 z"
       id="path36"
       transform="scale(0.26458333)" /></g><metadata
     id="metadata36"><rdf:RDF><cc:Work
         rdf:about=""><dc:title>Task Dragon</dc:title></cc:Work></rdf:RDF></metadata></svg>
